<svg enable-background="new 0 0 64 64" height="512" viewBox="0 0 64 64" width="512" xmlns="http://www.w3.org/2000/svg"><g id="multiple_image"><g><g><path clip-rule="evenodd" d="m54.0084 17.418h-48.2427-4.7657v36.5156l14.2636-13.1216 7.9289 8.0462 13.364-12.0966 17.4519 17.172v-1.7155z" fill="#b0dbff" fill-rule="evenodd"/></g><g><path clip-rule="evenodd" d="m36.5565 36.7616-13.364 12.0966-9.6779 8.7617h40.4938v-3.6863z" fill="#84b956" fill-rule="evenodd"/></g><g><path clip-rule="evenodd" d="m15.2636 40.812-14.2636 13.1216v3.6863h12.5146l9.6779-8.7617z" fill="#84b956" fill-rule="evenodd"/></g><g><path clip-rule="evenodd" d="m58.7741 12.0162h-48.7825-4.2259v5.4018h48.2427v34.8001h4.7657v-5.6361z" fill="#5fa0fa" fill-rule="evenodd"/></g><g><path clip-rule="evenodd" d="m63 6.3801h-53.0084v5.6361h48.7825v34.5658h4.2259z" fill="#4080db" fill-rule="evenodd"/></g><g><path clip-rule="evenodd" d="m11.2301 25.4433c-2.1172 0-3.8368 1.7155-3.8368 3.8327s1.7197 3.8369 3.8368 3.8369 3.8326-1.7197 3.8326-3.8369c.0001-2.1171-1.7154-3.8327-3.8326-3.8327z" fill="#ffc824" fill-rule="evenodd"/></g><g><path d="m63 5.3799h-53.0088c-.5527 0-1 .4478-1 1v4.6362h-3.2256c-.5527 0-1 .4478-1 1v4.4019h-3.7656c-.5527 0-1 .4478-1 1v40.2021c0 .5527.4473 1 1 1h53.0088c.5527 0 1-.4473 1-1v-4.4023h3.7656c.5527 0 1-.4473 1-1v-4.6358h3.2256c.5527 0 1-.4473 1-1v-40.2021c0-.5523-.4473-1-1-1zm-9.9912 13.0381v33.1289l-15.751-15.498c-.3789-.373-.9795-.3848-1.3721-.0283l-12.6531 11.454-7.257-7.3652c-.3789-.3838-.9922-.3975-1.3887-.0342l-12.5869 11.5795v-33.2367zm-51.0088 35.9546 13.2295-12.1704 6.5192 6.6157-8.619 7.8022h-11.1297zm14.1091 2.2475 20.4192-18.4834 16.4805 16.2158v2.2676zm41.6653-5.4023h-2.7656v-33.7998c0-.5522-.4473-1-1-1h-47.2432v-3.4019h51.0088zm4.2256-5.6358h-2.2256v-33.5659c0-.5522-.4473-1-1-1h-47.7832v-3.6362h51.0088z"/><path d="m11.2305 34.1133c2.6641 0 4.832-2.1699 4.832-4.8374 0-2.6646-2.168-4.8325-4.832-4.8325-2.667 0-4.8369 2.168-4.8369 4.8325 0 2.6675 2.1699 4.8374 4.8369 4.8374zm0-7.6699c1.5615 0 2.832 1.2705 2.832 2.8325 0 1.5645-1.2705 2.8374-2.832 2.8374-1.5645 0-2.8369-1.2729-2.8369-2.8374 0-1.562 1.2724-2.8325 2.8369-2.8325z"/></g></g></g></svg>